<?xml version="1.0" encoding="UTF-8" standalone="no"?>
<!-- Created with Inkscape (http://www.inkscape.org/) -->

<svg
   xmlns:dc="http://purl.org/dc/elements/1.1/"
   xmlns:cc="http://creativecommons.org/ns#"
   xmlns:rdf="http://www.w3.org/1999/02/22-rdf-syntax-ns#"
   xmlns:svg="http://www.w3.org/2000/svg"
   xmlns="http://www.w3.org/2000/svg"
   xmlns:sodipodi="http://sodipodi.sourceforge.net/DTD/sodipodi-0.dtd"
   xmlns:inkscape="http://www.inkscape.org/namespaces/inkscape"
   id="svg2"
   version="1.1"
   inkscape:version="0.91 r13725"
   xml:space="preserve"
   width="218.48888"
   height="36.977867"
   viewBox="0 0 218.48888 36.977867"
   sodipodi:docname="feynrule_3.svg"><metadata
     id="metadata8"><rdf:RDF><cc:Work
         rdf:about=""><dc:format>image/svg+xml</dc:format><dc:type
           rdf:resource="http://purl.org/dc/dcmitype/StillImage" /><dc:title></dc:title></cc:Work></rdf:RDF></metadata><defs
     id="defs6" /><sodipodi:namedview
     pagecolor="#ffffff"
     bordercolor="#666666"
     borderopacity="1"
     objecttolerance="10"
     gridtolerance="10"
     guidetolerance="10"
     inkscape:pageopacity="0"
     inkscape:pageshadow="2"
     inkscape:window-width="640"
     inkscape:window-height="480"
     id="namedview4"
     showgrid="false"
     inkscape:zoom="1.6705656"
     inkscape:cx="109.24444"
     inkscape:cy="18.488934"
     inkscape:window-x="65"
     inkscape:window-y="24"
     inkscape:window-maximized="0"
     inkscape:current-layer="g10" /><g
     id="g10"
     inkscape:groupmode="layer"
     inkscape:label="feynrule_3"
     transform="matrix(1.25,0,0,-1.25,0,36.977867)"><g
       id="g12"><path
         d="m 170.789,7.004 c 0,-2.094 -1.695,-3.789 -3.785,-3.789 -2.094,0 -3.789,1.695 -3.789,3.789 0,2.09 1.695,3.785 3.789,3.785 2.09,0 3.785,-1.695 3.785,-3.785 z"
         style="fill:#000000;fill-opacity:1;fill-rule:nonzero;stroke:#000000;stroke-width:4.16364193;stroke-linecap:round;stroke-linejoin:round;stroke-miterlimit:4;stroke-dasharray:none;stroke-opacity:1"
         id="path14"
         inkscape:connector-curvature="0" /><path
         d="m 10.789,7.004 c 0,-2.094 -1.695,-3.789 -3.785,-3.789 -2.094,0 -3.789,1.695 -3.789,3.789 0,2.09 1.695,3.785 3.789,3.785 2.09,0 3.785,-1.695 3.785,-3.785 z"
         style="fill:#000000;fill-opacity:1;fill-rule:nonzero;stroke:#000000;stroke-width:4.16364193;stroke-linecap:round;stroke-linejoin:round;stroke-miterlimit:4;stroke-dasharray:none;stroke-opacity:1"
         id="path16"
         inkscape:connector-curvature="0" /><g
         id="g18"
         transform="matrix(1,0,0,-1,0,29.582294)"><path
           d="m 168.594,21.344 c -6.637,8.535 -19.906,8.535 -26.543,0 -6.637,-8.535 -19.91,-8.535 -26.547,0"
           style="fill:none;stroke:#000000;stroke-width:2.57118511;stroke-linecap:butt;stroke-linejoin:miter;stroke-miterlimit:4;stroke-dasharray:none;stroke-opacity:1"
           id="path20"
           inkscape:connector-curvature="0" /></g><g
         id="g22"
         transform="matrix(1,0,0,-1,0,29.582294)"><path
           d="m 115.57,21.262 c -6.636,8.535 -19.91,8.535 -26.547,0 -6.632,-8.535 -19.906,-8.535 -26.543,0"
           style="fill:none;stroke:#000000;stroke-width:2.57118511;stroke-linecap:butt;stroke-linejoin:miter;stroke-miterlimit:4;stroke-dasharray:none;stroke-opacity:1"
           id="path24"
           inkscape:connector-curvature="0" /></g><g
         id="g26"
         transform="matrix(1,0,0,-1,0,29.582294)"><path
           d="m 62.508,21.262 c -6.637,8.535 -19.91,8.535 -26.547,0 -6.637,-8.535 -19.906,-8.535 -26.543,0"
           style="fill:none;stroke:#000000;stroke-width:2.57118511;stroke-linecap:butt;stroke-linejoin:miter;stroke-miterlimit:4;stroke-dasharray:none;stroke-opacity:1"
           id="path28"
           inkscape:connector-curvature="0" /></g><path
         d="m 153.199,27.028 0.016,0.046 0.004,0.028 0.008,0.019 0.003,0.024 0.004,0.015 0.008,0.02 0.004,0.016 0.004,0.019 0.004,0.016 0,0.015 0.004,0.016 0.004,0.012 0,0.011 0.008,0.024 0,0.027 0.003,0.012 0,0.031 0.004,0.02 0,0.09 c 0,0.363 -0.281,0.543 -0.582,0.543 -0.203,0 -0.519,-0.122 -0.703,-0.422 -0.039,-0.098 -0.203,-0.723 -0.281,-1.086 -0.137,-0.52 -0.281,-1.067 -0.399,-1.606 l -0.906,-3.617 c -0.078,-0.297 -0.941,-1.707 -2.269,-1.707 -1.024,0 -1.246,0.883 -1.246,1.625 0,0.93 0.339,2.172 1.023,3.941 0.324,0.825 0.406,1.043 0.406,1.446 0,0.906 -0.648,1.648 -1.652,1.648 -1.906,0 -2.648,-2.918 -2.648,-3.094 0,-0.203 0.199,-0.203 0.238,-0.203 0.203,0 0.222,0.043 0.324,0.364 0.539,1.89 1.344,2.488 2.027,2.488 0.161,0 0.504,0 0.504,-0.641 0,-0.504 -0.203,-1.023 -0.343,-1.406 -0.801,-2.129 -1.165,-3.273 -1.165,-4.219 0,-1.785 1.266,-2.39 2.45,-2.39 0.785,0 1.465,0.343 2.031,0.906 -0.262,-1.047 -0.504,-2.031 -1.309,-3.098 -0.519,-0.679 -1.285,-1.265 -2.211,-1.265 -0.281,0 -1.183,0.066 -1.527,0.847 0.324,0 0.586,0 0.867,0.239 0.199,0.179 0.399,0.441 0.399,0.824 0,0.621 -0.539,0.703 -0.743,0.703 -0.46,0 -1.124,-0.324 -1.124,-1.309 0,-1.004 0.882,-1.746 2.128,-1.746 2.071,0 4.141,1.828 4.704,4.098 l 1.929,7.676 z"
         style="fill:#000000;fill-opacity:1;fill-rule:evenodd;stroke:none"
         id="path30"
         inkscape:connector-curvature="0" /><path
         d="m 157.996,19.395 0,0.125 -0.004,0.117 -0.008,0.117 -0.007,0.113 -0.016,0.106 -0.012,0.105 -0.019,0.106 -0.02,0.098 -0.027,0.097 -0.055,0.18 -0.027,0.086 -0.039,0.078 -0.035,0.078 -0.036,0.074 -0.039,0.071 -0.047,0.066 -0.043,0.059 -0.05,0.062 -0.047,0.051 -0.051,0.055 -0.055,0.043 -0.054,0.039 -0.063,0.043 -0.058,0.031 -0.063,0.027 -0.062,0.024 -0.067,0.019 -0.066,0.016 -0.071,0.015 -0.066,0.008 -0.074,0 c -0.664,0 -1.067,-0.5 -1.067,-1.066 0,-0.539 0.403,-1.063 1.067,-1.063 0.238,0 0.5,0.078 0.703,0.262 0.059,0.039 0.078,0.059 0.098,0.059 0.019,0 0.043,-0.02 0.043,-0.301 0,-1.488 -0.707,-2.692 -1.368,-3.356 -0.222,-0.222 -0.222,-0.261 -0.222,-0.324 0,-0.137 0.101,-0.219 0.203,-0.219 0.219,0 1.824,1.547 1.824,3.899 z"
         style="fill:#000000;fill-opacity:1;fill-rule:evenodd;stroke:none"
         id="path32"
         inkscape:connector-curvature="0" /><path
         d="m 167.293,28.032 0,0.007 -0.004,0.008 0,0.027 -0.004,0.012 0,0.008 -0.008,0.016 -0.004,0.011 -0.003,0.008 -0.004,0.012 -0.004,0.008 -0.008,0.011 -0.031,0.032 -0.008,0.004 -0.004,0.003 -0.004,0.008 -0.008,0.004 -0.004,0.004 -0.015,0.008 -0.004,0.004 -0.008,0 -0.023,0.012 -0.008,0 -0.008,0.003 -0.012,0 -0.012,0.004 -0.007,0 -0.012,0.004 -0.031,0 -0.012,0.004 -0.012,0 c -0.465,0 -1.929,-0.16 -2.453,-0.203 -0.156,-0.019 -0.379,-0.039 -0.379,-0.402 0,-0.239 0.18,-0.239 0.481,-0.239 0.965,0 1.004,-0.14 1.004,-0.343 0,-0.141 -0.243,-1.082 -0.379,-1.629 l -1.227,-4.918 c -0.078,-0.305 -0.223,-0.863 -0.223,-0.906 0,-0.219 0.204,-0.239 0.325,-0.239 l 0.277,0 c 1.41,0.239 3.598,1.024 5.668,2.949 2.652,2.473 3.191,5.204 3.191,5.387 0,0.34 -0.242,0.543 -0.578,0.543 -0.164,0 -0.625,-0.082 -0.785,-0.66 -1.285,-4.562 -4.336,-6.812 -6.629,-7.559 l 1.969,7.997 z"
         style="fill:#000000;fill-opacity:1;fill-rule:evenodd;stroke:none"
         id="path34"
         inkscape:connector-curvature="0" /><path
         d="m 8.23,25.09 0.012,0.055 0.012,0.062 0.023,0.071 0.016,0.074 0.023,0.078 0.028,0.09 0.023,0.086 0.028,0.093 0.07,0.196 0.043,0.105 0.043,0.098 0.043,0.105 0.051,0.102 0.054,0.105 0.059,0.102 0.062,0.102 0.063,0.097 0.07,0.098 0.149,0.18 0.082,0.082 0.086,0.082 0.093,0.074 0.094,0.066 0.102,0.059 0.05,0.027 0.11,0.047 0.117,0.039 0.055,0.02 0.058,0.011 0.063,0.012 0.062,0.008 0.067,0.008 0.066,0.004 0.066,0 c 0.102,0 0.602,0 1.032,-0.27 -0.578,-0.101 -0.989,-0.617 -0.989,-1.109 0,-0.332 0.223,-0.727 0.782,-0.727 0.457,0 1.113,0.375 1.113,1.199 0,1.075 -1.215,1.364 -1.918,1.364 -1.195,0 -1.922,-1.094 -2.168,-1.571 -0.516,1.364 -1.633,1.571 -2.227,1.571 -2.148,0 -3.324,-2.664 -3.324,-3.18 0,-0.207 0.207,-0.207 0.246,-0.207 0.164,0 0.227,0.043 0.266,0.223 0.707,2.195 2.066,2.707 2.769,2.707 0.395,0 1.114,-0.188 1.114,-1.379 0,-0.645 -0.352,-2.028 -1.114,-4.914 -0.332,-1.282 -1.05,-2.149 -1.96,-2.149 -0.125,0 -0.602,0 -1.032,0.27 0.516,0.105 0.969,0.535 0.969,1.113 0,0.559 -0.453,0.723 -0.766,0.723 -0.617,0 -1.132,-0.539 -1.132,-1.2 0,-0.949 1.031,-1.363 1.941,-1.363 1.359,0 2.105,1.449 2.168,1.57 0.246,-0.765 0.988,-1.57 2.23,-1.57 2.125,0 3.301,2.668 3.301,3.18 0,0.207 -0.187,0.207 -0.25,0.207 -0.183,0 -0.226,-0.082 -0.269,-0.227 -0.68,-2.211 -2.082,-2.703 -2.743,-2.703 -0.808,0 -1.136,0.66 -1.136,1.363 0,0.454 0.121,0.907 0.355,1.817 L 8.23,25.09 Z"
         style="fill:#000000;fill-opacity:1;fill-rule:evenodd;stroke:none"
         id="path36"
         inkscape:connector-curvature="0" /><path
         d="m 17.129,18.879 0,0.129 -0.004,0.121 -0.008,0.117 -0.012,0.118 -0.015,0.113 -0.012,0.105 -0.019,0.11 -0.024,0.097 -0.023,0.102 -0.028,0.094 -0.031,0.093 -0.027,0.086 -0.039,0.082 -0.035,0.078 -0.04,0.075 -0.042,0.078 -0.043,0.062 -0.047,0.063 -0.051,0.062 -0.047,0.055 -0.055,0.055 -0.054,0.047 -0.059,0.039 -0.062,0.043 -0.063,0.031 -0.059,0.031 -0.066,0.024 -0.066,0.019 -0.071,0.02 -0.074,0.011 -0.07,0.008 -0.074,0 c -0.684,0 -1.094,-0.515 -1.094,-1.094 0,-0.554 0.41,-1.093 1.094,-1.093 0.246,0 0.515,0.082 0.722,0.269 0.063,0.039 0.082,0.063 0.102,0.063 0.019,0 0.043,-0.024 0.043,-0.313 0,-1.527 -0.727,-2.765 -1.406,-3.449 -0.227,-0.227 -0.227,-0.27 -0.227,-0.328 0,-0.145 0.105,-0.227 0.207,-0.227 0.227,0 1.879,1.59 1.879,4.004 z"
         style="fill:#000000;fill-opacity:1;fill-rule:evenodd;stroke:none"
         id="path38"
         inkscape:connector-curvature="0" /><path
         d="m 26.824,26.102 0.008,0.043 0.016,0.043 0.007,0.047 0.012,0.047 0.012,0.05 0.012,0.047 0.027,0.102 0.023,0.101 0.024,0.106 0.031,0.097 0.02,0.106 0.011,0.043 0.012,0.051 0.016,0.047 0.007,0.046 0.012,0.039 0.008,0.043 0.016,0.079 0.007,0.031 0.012,0.031 0.004,0.027 0.004,0.032 0.008,0.039 0,0.027 c 0,0.352 -0.246,0.559 -0.598,0.559 -0.062,0 -0.637,-0.02 -0.824,-0.746 L 22.734,15.285 c -0.058,-0.242 -0.058,-0.289 -0.058,-0.328 0,-0.308 0.226,-0.558 0.578,-0.558 0.43,0 0.68,0.375 0.719,0.437 0.086,0.18 0.355,1.254 1.136,4.438 0.664,-0.559 1.59,-0.645 2,-0.645 1.45,0 2.254,0.934 2.75,1.512 0.188,-0.93 0.95,-1.512 1.856,-1.512 0.723,0 1.199,0.477 1.531,1.137 0.348,0.742 0.617,2.004 0.617,2.043 0,0.207 -0.187,0.207 -0.246,0.207 -0.207,0 -0.226,-0.082 -0.289,-0.367 -0.351,-1.344 -0.726,-2.563 -1.57,-2.563 -0.555,0 -0.617,0.535 -0.617,0.949 0,0.454 0.246,1.426 0.41,2.149 l 0.578,2.226 c 0.062,0.313 0.269,1.094 0.351,1.407 0.106,0.472 0.309,1.254 0.309,1.379 0,0.375 -0.285,0.562 -0.598,0.562 -0.101,0 -0.64,-0.023 -0.804,-0.723 l -0.969,-3.863 c -0.25,-1.031 -0.477,-1.898 -0.539,-2.105 -0.02,-0.102 -1.012,-1.981 -2.684,-1.981 -1.031,0 -1.527,0.68 -1.527,1.793 0,0.602 0.144,1.18 0.285,1.758 l 0.871,3.465 z"
         style="fill:#000000;fill-opacity:1;fill-rule:evenodd;stroke:none"
         id="path40"
         inkscape:connector-curvature="0" /></g></g></svg>