<?xml version="1.0" encoding="UTF-8" standalone="no"?>
<!-- Created with Inkscape (http://www.inkscape.org/) -->

<svg
   xmlns:dc="http://purl.org/dc/elements/1.1/"
   xmlns:cc="http://creativecommons.org/ns#"
   xmlns:rdf="http://www.w3.org/1999/02/22-rdf-syntax-ns#"
   xmlns:svg="http://www.w3.org/2000/svg"
   xmlns="http://www.w3.org/2000/svg"
   xmlns:sodipodi="http://sodipodi.sourceforge.net/DTD/sodipodi-0.dtd"
   xmlns:inkscape="http://www.inkscape.org/namespaces/inkscape"
   id="svg2"
   version="1.1"
   inkscape:version="0.91 r13725"
   xml:space="preserve"
   width="342.34949mm"
   height="65.903961mm"
   viewBox="0 0 1213.0493 233.51797"
   sodipodi:docname="propagator.svg"><sodipodi:namedview
     pagecolor="#ffffff"
     bordercolor="#666666"
     borderopacity="1"
     objecttolerance="10"
     gridtolerance="10"
     guidetolerance="10"
     inkscape:pageopacity="0"
     inkscape:pageshadow="2"
     inkscape:window-width="1855"
     inkscape:window-height="1176"
     id="namedview4"
     showgrid="false"
     inkscape:zoom="3.0919254"
     inkscape:cx="1011.0366"
     inkscape:cy="100.58669"
     inkscape:window-x="65"
     inkscape:window-y="24"
     inkscape:window-maximized="1"
     inkscape:current-layer="g10"
     units="mm"
     fit-margin-top="0.4"
     fit-margin-left="0.4"
     fit-margin-right="0.4"
     fit-margin-bottom="0.4" /><metadata
     id="metadata8"><rdf:RDF><cc:Work
         rdf:about=""><dc:format>image/svg+xml</dc:format><dc:type
           rdf:resource="http://purl.org/dc/dcmitype/StillImage" /><dc:title /></cc:Work></rdf:RDF></metadata><defs
     id="defs6" /><g
     transform="matrix(1.25,0,0,-1.25,-750.94332,1082.7976)"
     inkscape:label="mixed"
     inkscape:groupmode="layer"
     id="g10"><g
       inkscape:transform-center-y="-0.45745079"
       inkscape:transform-center-x="-7.7756176"
       transform="matrix(-0.26903633,0.05732519,0.05732519,0.26903633,1147.4465,667.31766)"
       id="g4243"><g
         transform="matrix(-0.54649857,-0.71592417,-0.71592417,0.54649857,688.57174,688.57098)"
         id="g26"><path
           inkscape:connector-curvature="0"
           id="path28"
           style="fill:none;stroke:#000000;stroke-width:9.53854656;stroke-linecap:round;stroke-linejoin:miter;stroke-miterlimit:4;stroke-dasharray:none;stroke-opacity:1"
           d="m 350.633,327.357 -47.557,47.557" /></g><g
         transform="matrix(-0.54649857,-0.71592417,-0.71592417,0.54649857,688.57174,688.57098)"
         id="g30"><path
           inkscape:connector-curvature="0"
           id="path32"
           style="fill:none;stroke:#000000;stroke-width:9.53854656;stroke-linecap:round;stroke-linejoin:miter;stroke-miterlimit:4;stroke-dasharray:none;stroke-opacity:1"
           d="m 303.078,327.357 47.557,47.557" /></g></g><path
       d="m 1115.1835,803.61966 c -8.2135,6.38655 -8.2135,19.15946 0,25.54679 8.2135,6.38636 8.2135,19.15946 0,25.54582"
       style="fill:none;stroke:#000000;stroke-width:2.4745183;stroke-linecap:butt;stroke-linejoin:miter;stroke-miterlimit:4;stroke-dasharray:none;stroke-opacity:1"
       id="path58"
       inkscape:connector-curvature="0" /><path
       d="m 760.07735,806.93753 -156.56605,0"
       style="fill:none;stroke:#000000;stroke-width:3.20000005;stroke-linecap:round;stroke-linejoin:miter;stroke-miterlimit:4;stroke-dasharray:none;stroke-opacity:1"
       id="path18"
       inkscape:connector-curvature="0" /><path
       d="m 760.0773,799.41471 -156.566,0"
       style="fill:none;stroke:#000000;stroke-width:3.20000005;stroke-linecap:round;stroke-linejoin:miter;stroke-miterlimit:4;stroke-dasharray:none;stroke-opacity:1"
       id="path68"
       inkscape:connector-curvature="0" /><g
       id="g4273"
       transform="matrix(0.16884018,0,0,0.16884018,572.55065,569.12196)"><g
         word-spacing="normal"
         letter-spacing="normal"
         font-size-adjust="none"
         font-stretch="normal"
         font-weight="normal"
         font-variant="normal"
         font-style="normal"
         stroke-miterlimit="10.433"
         xml:space="preserve"
         transform="matrix(4.2570304,0,0,-4.2570304,-744.98031,3159.7441)"
         id="content"
         style="font-style:normal;font-variant:normal;font-weight:normal;font-stretch:normal;letter-spacing:normal;word-spacing:normal;text-anchor:start;fill:none;fill-opacity:1;fill-rule:evenodd;stroke:#000000;stroke-linecap:butt;stroke-linejoin:miter;stroke-miterlimit:10.43299961;stroke-dasharray:none;stroke-dashoffset:0;stroke-opacity:1"><path
           id="path4276"
           d="m 490.22,422.29 0.14,0 0.15,0 0.15,0.01 0.07,0 0.07,0 0.07,0.01 0.08,0.01 0.07,0.01 0.07,0.01 0.06,0.02 0.07,0.01 0.07,0.02 0.06,0.02 0.06,0.03 0.06,0.03 0.05,0.03 0.06,0.03 0.05,0.04 0.04,0.04 0.05,0.05 0.03,0.05 0.02,0.03 0.02,0.02 0.02,0.03 0.01,0.03 0.02,0.03 0.01,0.04 0.01,0.03 0.01,0.04 0.01,0.03 0.01,0.04 0.01,0.04 0,0.04 0.01,0.04 0,0.04 0,0.05 0,0.05 c 0,0.99 -0.94,0.99 -1.64,0.99 l -29.84,0 c -0.7,0 -1.64,0 -1.64,-0.99 0,-1 0.94,-1 1.69,-1 z"
           inkscape:connector-curvature="0"
           style="fill:#000000;stroke-width:0" /><path
           id="path4278"
           d="m 490.27,412.62 0.13,0.01 0.14,0 0.14,0 0.07,0.01 0.07,0 0.07,0.01 0.07,0.01 0.07,0.01 0.07,0.01 0.06,0.01 0.07,0.02 0.06,0.02 0.06,0.02 0.06,0.02 0.06,0.03 0.06,0.03 0.05,0.04 0.05,0.04 0.04,0.04 0.05,0.04 0.02,0.03 0.02,0.03 0.01,0.02 0.02,0.03 0.02,0.03 0.01,0.03 0.02,0.03 0.01,0.03 0.01,0.04 0.01,0.03 0.01,0.04 0.01,0.04 0.01,0.04 0,0.04 0.01,0.04 0,0.04 0,0.05 0,0.04 c 0,1 -0.94,1 -1.69,1 l -29.74,0 c -0.75,0 -1.69,0 -1.69,-1 0,-1 0.94,-1 1.64,-1 z"
           inkscape:connector-curvature="0"
           style="fill:#000000;stroke-width:0" /></g></g><path
       inkscape:connector-curvature="0"
       id="path4317"
       style="fill:none;stroke:#000000;stroke-width:3.20000005;stroke-linecap:round;stroke-linejoin:miter;stroke-miterlimit:4;stroke-dasharray:none;stroke-opacity:1"
       d="m 968.0773,803.31016 -156.566,0" /><g
       transform="matrix(0.175838,0,0,0.175838,775.67979,561.00272)"
       id="g4339"><g
         style="font-style:normal;font-variant:normal;font-weight:normal;font-stretch:normal;letter-spacing:normal;word-spacing:normal;text-anchor:start;fill:none;fill-opacity:1;fill-rule:evenodd;stroke:#000000;stroke-linecap:butt;stroke-linejoin:miter;stroke-miterlimit:10.43299961;stroke-dasharray:none;stroke-dashoffset:0;stroke-opacity:1"
         id="g4341"
         transform="matrix(4.2570304,0,0,-4.2570304,-744.98031,3159.7441)"
         xml:space="preserve"
         stroke-miterlimit="10.433"
         font-style="normal"
         font-variant="normal"
         font-weight="normal"
         font-stretch="normal"
         font-size-adjust="none"
         letter-spacing="normal"
         word-spacing="normal"><path
           style="fill:#000000;stroke-width:0"
           inkscape:connector-curvature="0"
           d="m 476.38,417.46 13.89,0 c 0.7,0 1.64,0 1.64,0.99 0,1 -0.94,1 -1.64,1 l -13.89,0 0,13.95 c 0,0.69 0,1.64 -1,1.64 -1,0 -1,-0.95 -1,-1.64 l 0,-13.95 -13.95,0 c -0.7,0 -1.64,0 -1.64,-1 0,-0.99 0.94,-0.99 1.64,-0.99 l 13.95,0 0,-13.95 c 0,-0.7 0,-1.64 1,-1.64 1,0 1,0.94 1,1.64 z"
           id="path4343" /></g></g><path
       d="m 1118.3444,803.29279 -76.4583,0"
       style="fill:none;stroke:#000000;stroke-width:3.20000005;stroke-linecap:round;stroke-linejoin:miter;stroke-miterlimit:4;stroke-dasharray:none;stroke-opacity:1"
       id="path4366"
       inkscape:connector-curvature="0" /><path
       inkscape:connector-curvature="0"
       id="path4381"
       style="fill:none;stroke:#000000;stroke-width:3.20000005;stroke-linecap:round;stroke-linejoin:miter;stroke-miterlimit:4;stroke-dasharray:none;stroke-opacity:1"
       d="m 1191.668,807.40198 -76.6117,0" /><path
       inkscape:connector-curvature="0"
       id="path4383"
       style="fill:none;stroke:#000000;stroke-width:3.20000005;stroke-linecap:round;stroke-linejoin:miter;stroke-miterlimit:4;stroke-dasharray:none;stroke-opacity:1"
       d="m 1191.668,799.00103 -76.6117,0" /><g
       id="g4423"
       transform="matrix(-0.26903633,0.05732519,0.05732519,0.26903633,1157.0465,555.31765)"
       inkscape:transform-center-x="-7.7756176"
       inkscape:transform-center-y="-0.45745079"><g
         id="g4425"
         transform="matrix(-0.54649857,-0.71592417,-0.71592417,0.54649857,688.57174,688.57098)"><path
           d="m 350.633,327.357 -47.557,47.557"
           style="fill:none;stroke:#000000;stroke-width:9.53854656;stroke-linecap:round;stroke-linejoin:miter;stroke-miterlimit:4;stroke-dasharray:none;stroke-opacity:1"
           id="path4427"
           inkscape:connector-curvature="0" /></g><g
         id="g4429"
         transform="matrix(-0.54649857,-0.71592417,-0.71592417,0.54649857,688.57174,688.57098)"><path
           d="m 303.078,327.357 47.557,47.557"
           style="fill:none;stroke:#000000;stroke-width:9.53854656;stroke-linecap:round;stroke-linejoin:miter;stroke-miterlimit:4;stroke-dasharray:none;stroke-opacity:1"
           id="path4431"
           inkscape:connector-curvature="0" /></g></g><path
       inkscape:connector-curvature="0"
       id="path4433"
       style="fill:none;stroke:#000000;stroke-width:2.4745183;stroke-linecap:butt;stroke-linejoin:miter;stroke-miterlimit:4;stroke-dasharray:none;stroke-opacity:1"
       d="m 1124.7835,691.61966 c -8.2135,6.38655 -8.2135,19.15946 0,25.54679 8.2135,6.38636 8.2135,19.15946 0,25.54582" /><g
       transform="matrix(0.16884018,0,0,0.16884018,572.55065,458.72196)"
       id="g4435"><g
         style="font-style:normal;font-variant:normal;font-weight:normal;font-stretch:normal;letter-spacing:normal;word-spacing:normal;text-anchor:start;fill:none;fill-opacity:1;fill-rule:evenodd;stroke:#000000;stroke-linecap:butt;stroke-linejoin:miter;stroke-miterlimit:10.43299961;stroke-dasharray:none;stroke-dashoffset:0;stroke-opacity:1"
         id="g4437"
         transform="matrix(4.2570304,0,0,-4.2570304,-744.98031,3159.7441)"
         xml:space="preserve"
         stroke-miterlimit="10.433"
         font-style="normal"
         font-variant="normal"
         font-weight="normal"
         font-stretch="normal"
         font-size-adjust="none"
         letter-spacing="normal"
         word-spacing="normal"><path
           style="fill:#000000;stroke-width:0"
           inkscape:connector-curvature="0"
           d="m 490.22,422.29 0.14,0 0.15,0 0.15,0.01 0.07,0 0.07,0 0.07,0.01 0.08,0.01 0.07,0.01 0.07,0.01 0.06,0.02 0.07,0.01 0.07,0.02 0.06,0.02 0.06,0.03 0.06,0.03 0.05,0.03 0.06,0.03 0.05,0.04 0.04,0.04 0.05,0.05 0.03,0.05 0.02,0.03 0.02,0.02 0.02,0.03 0.01,0.03 0.02,0.03 0.01,0.04 0.01,0.03 0.01,0.04 0.01,0.03 0.01,0.04 0.01,0.04 0,0.04 0.01,0.04 0,0.04 0,0.05 0,0.05 c 0,0.99 -0.94,0.99 -1.64,0.99 l -29.84,0 c -0.7,0 -1.64,0 -1.64,-0.99 0,-1 0.94,-1 1.69,-1 z"
           id="path4439" /><path
           style="fill:#000000;stroke-width:0"
           inkscape:connector-curvature="0"
           d="m 490.27,412.62 0.13,0.01 0.14,0 0.14,0 0.07,0.01 0.07,0 0.07,0.01 0.07,0.01 0.07,0.01 0.07,0.01 0.06,0.01 0.07,0.02 0.06,0.02 0.06,0.02 0.06,0.02 0.06,0.03 0.06,0.03 0.05,0.04 0.05,0.04 0.04,0.04 0.05,0.04 0.02,0.03 0.02,0.03 0.01,0.02 0.02,0.03 0.02,0.03 0.01,0.03 0.02,0.03 0.01,0.03 0.01,0.04 0.01,0.03 0.01,0.04 0.01,0.04 0.01,0.04 0,0.04 0.01,0.04 0,0.04 0,0.05 0,0.04 c 0,1 -0.94,1 -1.69,1 l -29.74,0 c -0.75,0 -1.69,0 -1.69,-1 0,-1 0.94,-1 1.64,-1 z"
           id="path4441" /></g></g><path
       d="m 968.0773,692.91016 -156.566,0"
       style="fill:none;stroke:#000000;stroke-width:3.20000005;stroke-linecap:round;stroke-linejoin:miter;stroke-miterlimit:4;stroke-dasharray:none;stroke-opacity:1"
       id="path4443"
       inkscape:connector-curvature="0" /><g
       id="g4445"
       transform="matrix(0.175838,0,0,0.175838,775.67979,450.60272)"><g
         word-spacing="normal"
         letter-spacing="normal"
         font-size-adjust="none"
         font-stretch="normal"
         font-weight="normal"
         font-variant="normal"
         font-style="normal"
         stroke-miterlimit="10.433"
         xml:space="preserve"
         transform="matrix(4.2570304,0,0,-4.2570304,-744.98031,3159.7441)"
         id="g4447"
         style="font-style:normal;font-variant:normal;font-weight:normal;font-stretch:normal;letter-spacing:normal;word-spacing:normal;text-anchor:start;fill:none;fill-opacity:1;fill-rule:evenodd;stroke:#000000;stroke-linecap:butt;stroke-linejoin:miter;stroke-miterlimit:10.43299961;stroke-dasharray:none;stroke-dashoffset:0;stroke-opacity:1"><path
           id="path4449"
           d="m 476.38,417.46 13.89,0 c 0.7,0 1.64,0 1.64,0.99 0,1 -0.94,1 -1.64,1 l -13.89,0 0,13.95 c 0,0.69 0,1.64 -1,1.64 -1,0 -1,-0.95 -1,-1.64 l 0,-13.95 -13.95,0 c -0.7,0 -1.64,0 -1.64,-1 0,-0.99 0.94,-0.99 1.64,-0.99 l 13.95,0 0,-13.95 c 0,-0.7 0,-1.64 1,-1.64 1,0 1,0.94 1,1.64 z"
           inkscape:connector-curvature="0"
           style="fill:#000000;stroke-width:0" /></g></g><path
       inkscape:connector-curvature="0"
       id="path4451"
       style="fill:none;stroke:#000000;stroke-width:3.20000005;stroke-linecap:round;stroke-linejoin:miter;stroke-miterlimit:4;stroke-dasharray:none;stroke-opacity:1"
       d="m 1198.6881,692.16361 -154.9975,0" /><g
       inkscape:transform-center-y="-0.45745079"
       inkscape:transform-center-x="-7.7756176"
       transform="matrix(-0.26903633,0.05732519,0.05732519,0.26903633,1417.8465,556.91765)"
       id="g4457"><g
         transform="matrix(-0.54649857,-0.71592417,-0.71592417,0.54649857,688.57174,688.57098)"
         id="g4459"><path
           inkscape:connector-curvature="0"
           id="path4461"
           style="fill:none;stroke:#000000;stroke-width:9.53854656;stroke-linecap:round;stroke-linejoin:miter;stroke-miterlimit:4;stroke-dasharray:none;stroke-opacity:1"
           d="m 350.633,327.357 -47.557,47.557" /><path
           d="m 350.633,327.357 -47.557,47.557"
           style="fill:none;stroke:#000000;stroke-width:9.53854656;stroke-linecap:round;stroke-linejoin:miter;stroke-miterlimit:4;stroke-dasharray:none;stroke-opacity:1"
           id="path4477"
           inkscape:connector-curvature="0" /></g><g
         transform="matrix(-0.54649857,-0.71592417,-0.71592417,0.54649857,688.57174,688.57098)"
         id="g4463"><path
           inkscape:connector-curvature="0"
           id="path4465"
           style="fill:none;stroke:#000000;stroke-width:9.53854656;stroke-linecap:round;stroke-linejoin:miter;stroke-miterlimit:4;stroke-dasharray:none;stroke-opacity:1"
           d="m 303.078,327.357 47.557,47.557" /></g></g><path
       d="m 1385.5835,693.21966 c -8.2135,6.38655 -8.2135,19.15946 0,25.54679 8.2135,6.38636 8.2135,19.15946 0,25.54582"
       style="fill:none;stroke:#000000;stroke-width:2.4745183;stroke-linecap:butt;stroke-linejoin:miter;stroke-miterlimit:4;stroke-dasharray:none;stroke-opacity:1"
       id="path4467"
       inkscape:connector-curvature="0" /><g
       transform="matrix(0.175838,0,0,0.175838,1007.6798,450.60272)"
       id="g4469"><g
         style="font-style:normal;font-variant:normal;font-weight:normal;font-stretch:normal;letter-spacing:normal;word-spacing:normal;text-anchor:start;fill:none;fill-opacity:1;fill-rule:evenodd;stroke:#000000;stroke-linecap:butt;stroke-linejoin:miter;stroke-miterlimit:10.43299961;stroke-dasharray:none;stroke-dashoffset:0;stroke-opacity:1"
         id="g4471"
         transform="matrix(4.2570304,0,0,-4.2570304,-744.98031,3159.7441)"
         xml:space="preserve"
         stroke-miterlimit="10.433"
         font-style="normal"
         font-variant="normal"
         font-weight="normal"
         font-stretch="normal"
         font-size-adjust="none"
         letter-spacing="normal"
         word-spacing="normal"><path
           style="fill:#000000;stroke-width:0"
           inkscape:connector-curvature="0"
           d="m 476.38,417.46 13.89,0 c 0.7,0 1.64,0 1.64,0.99 0,1 -0.94,1 -1.64,1 l -13.89,0 0,13.95 c 0,0.69 0,1.64 -1,1.64 -1,0 -1,-0.95 -1,-1.64 l 0,-13.95 -13.95,0 c -0.7,0 -1.64,0 -1.64,-1 0,-0.99 0.94,-0.99 1.64,-0.99 l 13.95,0 0,-13.95 c 0,-0.7 0,-1.64 1,-1.64 1,0 1,0.94 1,1.64 z"
           id="path4473" /></g></g><path
       d="m 1428.5736,693.01337 -152.9166,0"
       style="fill:none;stroke:#000000;stroke-width:3.20000005;stroke-linecap:round;stroke-linejoin:miter;stroke-miterlimit:4;stroke-dasharray:none;stroke-opacity:1"
       id="path4475"
       inkscape:connector-curvature="0" /><g
       id="g4481"
       transform="matrix(-0.26903633,0.05732519,0.05732519,0.26903633,1358.6465,556.91765)"
       inkscape:transform-center-x="-7.7756176"
       inkscape:transform-center-y="-0.45745079"><g
         id="g4483"
         transform="matrix(-0.54649857,-0.71592417,-0.71592417,0.54649857,688.57174,688.57098)"><path
           d="m 350.633,327.357 -47.557,47.557"
           style="fill:none;stroke:#000000;stroke-width:9.53854656;stroke-linecap:round;stroke-linejoin:miter;stroke-miterlimit:4;stroke-dasharray:none;stroke-opacity:1"
           id="path4485"
           inkscape:connector-curvature="0" /><path
           inkscape:connector-curvature="0"
           id="path4487"
           style="fill:none;stroke:#000000;stroke-width:9.53854656;stroke-linecap:round;stroke-linejoin:miter;stroke-miterlimit:4;stroke-dasharray:none;stroke-opacity:1"
           d="m 350.633,327.357 -47.557,47.557" /></g><g
         id="g4489"
         transform="matrix(-0.54649857,-0.71592417,-0.71592417,0.54649857,688.57174,688.57098)"><path
           d="m 303.078,327.357 47.557,47.557"
           style="fill:none;stroke:#000000;stroke-width:9.53854656;stroke-linecap:round;stroke-linejoin:miter;stroke-miterlimit:4;stroke-dasharray:none;stroke-opacity:1"
           id="path4491"
           inkscape:connector-curvature="0" /></g></g><path
       d="m 1326.3835,693.21966 c -8.2135,6.38655 -8.2135,19.15946 0,25.54679 8.2135,6.38636 8.2135,19.15946 0,25.54582"
       style="fill:none;stroke:#000000;stroke-width:2.4745183;stroke-linecap:butt;stroke-linejoin:miter;stroke-miterlimit:4;stroke-dasharray:none;stroke-opacity:1"
       id="path4493"
       inkscape:connector-curvature="0" /><g
       id="g4495"
       transform="matrix(0.175838,0,0,0.175838,1249.2798,450.60272)"><g
         word-spacing="normal"
         letter-spacing="normal"
         font-size-adjust="none"
         font-stretch="normal"
         font-weight="normal"
         font-variant="normal"
         font-style="normal"
         stroke-miterlimit="10.433"
         xml:space="preserve"
         transform="matrix(4.2570304,0,0,-4.2570304,-744.98031,3159.7441)"
         id="g4497"
         style="font-style:normal;font-variant:normal;font-weight:normal;font-stretch:normal;letter-spacing:normal;word-spacing:normal;text-anchor:start;fill:none;fill-opacity:1;fill-rule:evenodd;stroke:#000000;stroke-linecap:butt;stroke-linejoin:miter;stroke-miterlimit:10.43299961;stroke-dasharray:none;stroke-dashoffset:0;stroke-opacity:1"><path
           id="path4499"
           d="m 476.38,417.46 13.89,0 c 0.7,0 1.64,0 1.64,0.99 0,1 -0.94,1 -1.64,1 l -13.89,0 0,13.95 c 0,0.69 0,1.64 -1,1.64 -1,0 -1,-0.95 -1,-1.64 l 0,-13.95 -13.95,0 c -0.7,0 -1.64,0 -1.64,-1 0,-0.99 0.94,-0.99 1.64,-0.99 l 13.95,0 0,-13.95 c 0,-0.7 0,-1.64 1,-1.64 1,0 1,0.94 1,1.64 z"
           inkscape:connector-curvature="0"
           style="fill:#000000;stroke-width:0" /></g></g><g
       id="g4562"
       transform="matrix(0.2942097,0,0,0.2942097,1167.1544,275.43581)"><g
         word-spacing="normal"
         letter-spacing="normal"
         font-size-adjust="none"
         font-stretch="normal"
         font-weight="normal"
         font-variant="normal"
         font-style="normal"
         stroke-miterlimit="10.433"
         xml:space="preserve"
         transform="matrix(4.2570304,0,0,-4.2570304,-744.98031,3159.7441)"
         id="g4564"
         style="font-style:normal;font-variant:normal;font-weight:normal;font-stretch:normal;letter-spacing:normal;word-spacing:normal;text-anchor:start;fill:none;fill-opacity:1;fill-rule:evenodd;stroke:#000000;stroke-linecap:butt;stroke-linejoin:miter;stroke-miterlimit:10.43299961;stroke-dasharray:none;stroke-dashoffset:0;stroke-opacity:1"><path
           id="path4566"
           d="m 465.56,408.64 0,0.14 -0.01,0.13 -0.02,0.13 -0.02,0.13 -0.03,0.13 -0.04,0.12 -0.04,0.12 -0.05,0.12 -0.05,0.12 -0.06,0.11 -0.06,0.11 -0.07,0.11 -0.08,0.1 -0.07,0.1 -0.09,0.1 -0.09,0.09 -0.09,0.09 -0.09,0.08 -0.1,0.08 -0.11,0.08 -0.1,0.07 -0.11,0.06 -0.12,0.06 -0.11,0.05 -0.12,0.05 -0.13,0.04 -0.12,0.04 -0.13,0.03 -0.13,0.02 -0.13,0.02 -0.13,0.01 -0.13,0 c -1.45,0 -2.64,-1.19 -2.64,-2.64 0,-1.44 1.19,-2.64 2.64,-2.64 1.44,0 2.63,1.2 2.63,2.64 z"
           inkscape:connector-curvature="0"
           style="fill:#000000;stroke-width:0" /><path
           id="path4568"
           d="m 478.56,408.64 0,0.14 -0.01,0.13 -0.02,0.13 -0.02,0.13 -0.03,0.13 -0.04,0.12 -0.04,0.12 -0.05,0.12 -0.05,0.12 -0.06,0.11 -0.06,0.11 -0.07,0.11 -0.08,0.1 -0.07,0.1 -0.09,0.1 -0.09,0.09 -0.09,0.09 -0.09,0.08 -0.1,0.08 -0.11,0.08 -0.1,0.07 -0.11,0.06 -0.12,0.06 -0.11,0.05 -0.12,0.05 -0.13,0.04 -0.12,0.04 -0.13,0.03 -0.13,0.02 -0.13,0.02 -0.13,0.01 -0.13,0 c -1.45,0 -2.64,-1.19 -2.64,-2.64 0,-1.44 1.19,-2.64 2.64,-2.64 1.44,0 2.63,1.2 2.63,2.64 z"
           inkscape:connector-curvature="0"
           style="fill:#000000;stroke-width:0" /><path
           id="path4570"
           d="m 492.56,408.64 0,0.14 -0.01,0.13 -0.02,0.13 -0.02,0.13 -0.03,0.13 -0.04,0.12 -0.04,0.12 -0.05,0.12 -0.05,0.12 -0.06,0.11 -0.06,0.11 -0.07,0.11 -0.08,0.1 -0.07,0.1 -0.09,0.1 -0.09,0.09 -0.09,0.09 -0.09,0.08 -0.1,0.08 -0.11,0.08 -0.1,0.07 -0.11,0.06 -0.12,0.06 -0.11,0.05 -0.12,0.05 -0.13,0.04 -0.12,0.04 -0.13,0.03 -0.13,0.02 -0.13,0.02 -0.13,0.01 -0.13,0 c -1.45,0 -2.64,-1.19 -2.64,-2.64 0,-1.44 1.19,-2.64 2.64,-2.64 1.44,0 2.63,1.2 2.63,2.64 z"
           inkscape:connector-curvature="0"
           style="fill:#000000;stroke-width:0" /></g></g><circle
       style="opacity:1;fill:#000000;fill-opacity:1;stroke:#000000;stroke-width:4.16364241;stroke-linecap:round;stroke-linejoin:round;stroke-miterlimit:4;stroke-dasharray:none;stroke-dashoffset:0;stroke-opacity:1"
       id="path4638"
       cx="1114.7745"
       cy="-803.2536"
       r="3.7873635"
       transform="scale(1,-1)" /></g></svg>